<?xml version="1.0" standalone="no"?>
<!DOCTYPE svg PUBLIC "-//W3C//DTD SVG 20010904//EN"
 "http://www.w3.org/TR/2001/REC-SVG-20010904/DTD/svg10.dtd">
<svg version="1.0" xmlns="http://www.w3.org/2000/svg"
 width="242.000000pt" height="62.000000pt" viewBox="0 0 242.000000 62.000000"
 preserveAspectRatio="xMidYMid meet">

<g transform="translate(0.000000,62.000000) scale(0.100000,-0.100000)"
fill="#000000" stroke="none">
<path d="M210 510 c-14 -10 -46 -24 -72 -30 -43 -11 -48 -15 -54 -47 -11 -56
3 -180 23 -221 11 -21 41 -52 69 -70 42 -29 55 -33 93 -29 55 6 120 51 144
100 21 41 33 165 23 220 -6 30 -12 37 -39 42 -18 4 -52 18 -76 31 -52 29 -78
30 -111 4z m87 -31 c20 -12 49 -25 67 -28 l31 -7 3 -92 c2 -67 -1 -99 -13
-121 -18 -35 -69 -77 -106 -86 -32 -8 -92 20 -129 60 -23 25 -25 33 -25 132
l0 106 41 12 c23 7 52 20 65 29 29 20 25 20 66 -5z"/>
<path d="M2034 456 c-8 -21 3 -36 27 -36 15 0 20 6 17 22 -4 27 -35 37 -44 14z"/>
<path d="M690 310 l0 -140 95 0 c88 0 95 2 95 20 0 17 -8 19 -67 22 l-68 3 -3
38 -3 37 65 0 c59 0 66 2 66 20 0 16 -8 19 -62 22 l-63 3 -3 38 -3 37 70 0
c64 0 71 2 71 20 0 19 -7 20 -95 20 l-95 0 0 -140z"/>
<path d="M1219 378 c-13 -5 -27 -14 -31 -21 -5 -8 -8 -6 -8 6 0 11 -8 17 -25
17 l-25 0 0 -140 0 -140 25 0 c23 0 25 3 25 52 0 49 1 50 18 35 28 -25 78 -21
107 8 20 20 25 34 25 78 0 84 -47 128 -111 105z m49 -50 c15 -15 16 -72 2 -99
-13 -23 -47 -25 -72 -2 -20 18 -24 64 -8 94 12 22 59 26 78 7z"/>
<path d="M1434 383 c-12 -2 -32 -15 -45 -29 -19 -21 -24 -36 -24 -81 0 -48 4
-58 28 -79 37 -31 103 -33 135 -4 40 38 20 53 -33 26 -30 -16 -53 -12 -72 12
-22 27 -15 31 60 34 l72 3 -3 35 c-4 57 -58 94 -118 83z m59 -55 l22 -23 -49
-3 c-59 -4 -68 4 -37 29 30 24 36 24 64 -3z"/>
<path d="M1690 382 c-8 -3 -23 -11 -32 -20 -16 -14 -18 -13 -18 1 0 11 -8 17
-25 17 l-25 0 0 -105 0 -105 25 0 c24 0 25 2 25 66 0 80 11 104 49 104 36 0
41 -13 41 -101 0 -67 1 -69 25 -69 25 0 25 1 25 83 0 56 -5 89 -15 104 -15 21
-50 33 -75 25z"/>
<path d="M1875 383 c-33 -8 -55 -34 -55 -64 0 -32 8 -38 70 -59 49 -16 64 -44
30 -55 -13 -4 -31 0 -46 10 -14 9 -34 15 -46 13 -20 -3 -20 -3 2 -30 18 -24
29 -28 69 -28 58 0 91 21 91 59 0 35 -16 49 -72 66 -31 9 -43 17 -43 31 0 24
37 30 58 10 28 -28 64 -17 47 14 -8 16 -62 42 -79 39 -3 -1 -15 -4 -26 -6z"/>
<path d="M2195 381 c-54 -17 -75 -49 -75 -111 0 -91 106 -135 171 -71 32 32
39 88 18 134 -17 37 -75 61 -114 48z m55 -51 c22 -22 26 -70 10 -101 -14 -26
-66 -26 -80 0 -18 35 -12 88 12 105 29 20 34 20 58 -4z"/>
<path d="M910 374 c0 -3 14 -25 30 -49 17 -24 30 -46 30 -50 0 -4 -13 -26 -30
-50 -16 -24 -30 -46 -30 -49 0 -3 11 -6 25 -6 19 0 29 9 42 35 9 19 20 35 23
35 4 0 15 -16 26 -35 14 -27 25 -35 47 -35 l28 0 -35 54 -34 54 34 51 35 51
-28 0 c-22 0 -33 -9 -49 -36 l-21 -37 -21 37 c-16 26 -28 36 -47 36 -14 0 -25
-3 -25 -6z"/>
<path d="M2030 275 l0 -105 25 0 25 0 0 105 0 105 -25 0 -25 0 0 -105z"/>
</g>
</svg>
